<?xml version="1.0" encoding="UTF-8"?>
<svg version="1.1" xmlns="http://www.w3.org/2000/svg" xmlns:xlink="http://www.w3.org/1999/xlink" x="0px" y="0px" width="1000px" height="1000px" viewBox="0 0 1000 1000" enable-background="new 0 0 1000 1000" xml:space="preserve">
    <!--Rect Checkbox 0,0 15,56-->
    <path stroke="#c0cad5" stroke-width="1" fill="#ffffff" d="M0.5,0.5h13v13h-13z M0.5,14.5h13v13h-13z"  />
    <path stroke="#adb6c0" stroke-width="1" fill="#dae1e8" d="M0.5,28.5h13v13h-13z M0.5,42.5h13v13h-13z" />
    <path fill="#237ba0" d="M15,15.86 c0,0.079 -0.029,0.148 -0.087,0.207 l-7.874,7.893 c-0.05,0.058 -0.117,0.088 -0.2,0.088 h-0.0130003 h-0.0119998 c-0.075,0 -0.142,-0.029 -0.2,-0.088 l-3.65,-3.646 c-0.058,-0.0750003 -0.087,-0.146 -0.087,-0.213 c0,-0.067 0.029,-0.138 0.087,-0.213 l1.563,-1.566 c0.142,-0.125 0.283,-0.125 0.425,0 l1.875,1.892 l6.099,-6.126 c0.0740002,-0.0590001 0.145,-0.0880001 0.211,-0.0880001 c0.067,0 0.137,0.029 0.212,0.088 l1.562,1.566 c0.0590001,0.058 0.0889999,0.127 0.0889999,0.206 z M15,43.86 c0,0.079 -0.029,0.148 -0.087,0.207 l-7.874,7.893 c-0.05,0.058 -0.117,0.088 -0.2,0.088 h-0.0130003 h-0.0119998 c-0.075,0 -0.142,-0.029 -0.2,-0.088 l-3.65,-3.646 c-0.058,-0.0750003 -0.087,-0.146 -0.087,-0.213 c0,-0.067 0.029,-0.138 0.087,-0.213 l1.563,-1.566 c0.142,-0.125 0.283,-0.125 0.425,0 l1.875,1.892 l6.099,-6.126 c0.0740002,-0.0590001 0.145,-0.0880001 0.211,-0.0880001 c0.067,0 0.137,0.029 0.212,0.088 l1.562,1.566 c0.0590001,0.058 0.0889999,0.127 0.0889999,0.206 z"/>
    <!--Rect Checkbox End-->

    <!--Circle Checkbox 0,56 15,56 & Radio buttons 0,122 15,56-->
    <path stroke="#c0cad5" stroke-width="1" fill="#ffffff" d="M7,63m-6.5,0a6.5,6.5 0 1,0 13,0a 6.5,6.5 0 1,0 -13,0 M7,77m-6.5,0a6.5,6.5 0 1,0 13,0a 6.5,6.5 0 1,0 -13,0 M7,119m-6.5,0a6.5,6.5 0 1,0 13,0a 6.5,6.5 0 1,0 -13,0 M7,133m-6.5,0a6.5,6.5 0 1,0 13,0a 6.5,6.5 0 1,0 -13,0" />
    <path stroke="#adb6c0" stroke-width="1" fill="#dae1e8" d="M7,91m-6.5,0a6.5,6.5 0 1,0 13,0a 6.5,6.5 0 1,0 -13,0 M7,105m-6.5,0a6.5,6.5 0 1,0 13,0a 6.5,6.5 0 1,0 -13,0 M7,147m-6.5,0a6.5,6.5 0 1,0 13,0a 6.5,6.5 0 1,0 -13,0 M7,161m-6.5,0a6.5,6.5 0 1,0 13,0a 6.5,6.5 0 1,0 -13,0" />
    <!--Checkbox ok-->
    <path stroke-width="0" fill="#237ba0" d="M7,133m-2.5,0a2.5,2.5 0 1,0 5,0a 2.5,2.5 0 1,0 -5,0 M7,161m-2.5,0a2.5,2.5 0 1,0 5,0a 2.5,2.5 0 1,0 -5,0" />
    <!--Radio button point-->
    <path fill="#237ba0" d="m15,71.86 c0,0.079 -0.029,0.148 -0.087,0.207 l-7.874,7.893 c-0.05,0.058 -0.117,0.088 -0.2,0.088 h-0.0130003 h-0.0119998 c-0.075,0 -0.142,-0.029 -0.2,-0.088 l-3.65,-3.646 c-0.058,-0.0750003 -0.087,-0.146 -0.087,-0.213 c0,-0.067 0.029,-0.138 0.087,-0.213 l1.563,-1.566 c0.142,-0.125 0.283,-0.125 0.425,0 l1.875,1.892 l6.099,-6.126 c0.0740002,-0.0590001 0.145,-0.0880001 0.211,-0.0880001 c0.067,0 0.137,0.029 0.212,0.088 l1.562,1.566 c0.0590001,0.058 0.0889999,0.127 0.0889999,0.206 z M15,99.86 c0,0.079 -0.029,0.148 -0.087,0.207 l-7.874,7.893 c-0.05,0.058 -0.117,0.088 -0.2,0.088 h-0.0130003 h-0.0119998 c-0.075,0 -0.142,-0.029 -0.2,-0.088 l-3.65,-3.646 c-0.058,-0.0750003 -0.087,-0.146 -0.087,-0.213 c0,-0.067 0.029,-0.138 0.087,-0.213 l1.563,-1.566 c0.142,-0.125 0.283,-0.125 0.425,0 l1.875,1.892 l6.099,-6.126 c0.0740002,-0.0590001 0.145,-0.0880001 0.211,-0.0880001 c0.067,0 0.137,0.029 0.212,0.088 l1.562,1.566 c0.0590001,0.058 0.0889999,0.127 0.0889999,0.206 z"/>
    <!--Circle Checkbox & Radio buttons End-->
</svg>